<?xml version="1.0" encoding="UTF-8"?>
<svg width="432" height="432" viewBox="0 0 432 432" fill="none" xmlns="http://www.w3.org/2000/svg">
  <rect x="129" y="83" width="174" height="244" rx="38" fill="#F6B64B"/>
  <rect x="146" y="104" width="140" height="204" rx="28" fill="#8C3F3D" opacity="0.25"/>
  <path d="M141 205H291V282C291 296.359 279.359 308 265 308H167C152.641 308 141 296.359 141 282V205Z" fill="#D98730"/>
  <path d="M154 122C154 108.745 164.745 98 178 98H254C267.255 98 278 108.745 278 122V137H154V122Z" fill="#F6D7A7"/>
  <rect x="183" y="59" width="66" height="41" rx="12" fill="#E9C48B"/>
  <rect x="176" y="48" width="80" height="31" rx="14" fill="#F4D4A3"/>
  <path d="M165 130C165 119.507 173.507 111 184 111H194V297H184C173.507 297 165 288.493 165 278V130Z" fill="#FFF2D6" opacity="0.35"/>
  <circle cx="187" cy="244" r="27" fill="#91B957"/>
  <circle cx="240" cy="258" r="32" fill="#739941"/>
  <circle cx="255" cy="207" r="22" fill="#B5CE65"/>
  <path d="M249 183C241 167 250 153 265 148C269 164 263 176 249 183Z" fill="#7FA447"/>
  <path d="M218 189C230 166 250 153 274 149" stroke="#6E8D45" stroke-width="8" stroke-linecap="round"/>
  <rect x="195" y="180" width="24" height="24" rx="5" fill="#FFE3A7" opacity="0.9"/>
  <rect x="229" y="176" width="26" height="26" rx="5" fill="#FFE9BA" opacity="0.88"/>
  <rect x="185" y="207" width="21" height="21" rx="5" fill="#FFF0CA" opacity="0.8"/>
</svg>